<mxfile host="app.diagrams.net" modified="2024-07-26T11:56:15.145Z" agent="Mozilla/5.0 (Windows NT 10.0; Win64; x64) AppleWebKit/537.36 (KHTML, like Gecko) Chrome/126.0.0.0 Safari/537.36" etag="ApvVX4rAq392xzMW2kwk" version="24.5.4" type="github">
  <diagram name="Page-1" id="U7gvFuykuvH9PfmTYGnP">
    <mxGraphModel dx="862" dy="372" grid="1" gridSize="10" guides="1" tooltips="1" connect="1" arrows="1" fold="1" page="1" pageScale="1" pageWidth="850" pageHeight="1100" math="1" shadow="0">
      <root>
        <mxCell id="0" />
        <mxCell id="1" parent="0" />
        <mxCell id="BidWV4zDIWGO6gDACLuI-4" value="" style="rounded=1;whiteSpace=wrap;html=1;rotation=-90;dashed=1;" vertex="1" parent="1">
          <mxGeometry x="300" y="250" width="220" height="110" as="geometry" />
        </mxCell>
        <mxCell id="BidWV4zDIWGO6gDACLuI-1" value="" style="rounded=1;whiteSpace=wrap;html=1;rotation=-90;" vertex="1" parent="1">
          <mxGeometry x="320" y="260" width="180" height="90" as="geometry" />
        </mxCell>
        <mxCell id="BidWV4zDIWGO6gDACLuI-5" value="" style="endArrow=classic;html=1;rounded=0;exitX=0;exitY=0.5;exitDx=0;exitDy=0;" edge="1" parent="1" source="BidWV4zDIWGO6gDACLuI-1">
          <mxGeometry width="50" height="50" relative="1" as="geometry">
            <mxPoint x="409.65999999999997" y="400" as="sourcePoint" />
            <mxPoint x="409.65999999999997" y="445" as="targetPoint" />
          </mxGeometry>
        </mxCell>
        <mxCell id="BidWV4zDIWGO6gDACLuI-7" value="" style="shape=link;html=1;rounded=0;exitX=0.92;exitY=1.013;exitDx=0;exitDy=0;exitPerimeter=0;" edge="1" parent="1" source="BidWV4zDIWGO6gDACLuI-1">
          <mxGeometry width="100" relative="1" as="geometry">
            <mxPoint x="460" y="230" as="sourcePoint" />
            <mxPoint x="560" y="230" as="targetPoint" />
          </mxGeometry>
        </mxCell>
        <mxCell id="BidWV4zDIWGO6gDACLuI-8" value="" style="endArrow=classic;html=1;rounded=0;entryX=0.641;entryY=0.022;entryDx=0;entryDy=0;entryPerimeter=0;" edge="1" parent="1" target="BidWV4zDIWGO6gDACLuI-1">
          <mxGeometry width="50" height="50" relative="1" as="geometry">
            <mxPoint x="300" y="280" as="sourcePoint" />
            <mxPoint x="360" y="280" as="targetPoint" />
          </mxGeometry>
        </mxCell>
        <mxCell id="BidWV4zDIWGO6gDACLuI-9" value="" style="endArrow=classic;html=1;rounded=0;entryX=0.25;entryY=1;entryDx=0;entryDy=0;" edge="1" parent="1" target="BidWV4zDIWGO6gDACLuI-1">
          <mxGeometry width="50" height="50" relative="1" as="geometry">
            <mxPoint x="520" y="350" as="sourcePoint" />
            <mxPoint x="586" y="330" as="targetPoint" />
          </mxGeometry>
        </mxCell>
        <mxCell id="BidWV4zDIWGO6gDACLuI-10" value="&lt;b&gt;Flash tank&lt;/b&gt;" style="text;html=1;align=center;verticalAlign=middle;whiteSpace=wrap;rounded=0;" vertex="1" parent="1">
          <mxGeometry x="375" y="160" width="70" height="30" as="geometry" />
        </mxCell>
        <mxCell id="BidWV4zDIWGO6gDACLuI-14" value="" style="endArrow=none;dashed=1;html=1;rounded=0;exitX=0.5;exitY=0;exitDx=0;exitDy=0;entryX=0.5;entryY=1;entryDx=0;entryDy=0;" edge="1" parent="1" source="BidWV4zDIWGO6gDACLuI-1" target="BidWV4zDIWGO6gDACLuI-1">
          <mxGeometry width="50" height="50" relative="1" as="geometry">
            <mxPoint x="400" y="320" as="sourcePoint" />
            <mxPoint x="450" y="270" as="targetPoint" />
            <Array as="points" />
          </mxGeometry>
        </mxCell>
        <mxCell id="BidWV4zDIWGO6gDACLuI-16" value="$$\dot m_{src,in} $$&amp;nbsp;&lt;div&gt;&lt;br&gt;&lt;/div&gt;" style="text;html=1;align=center;verticalAlign=middle;whiteSpace=wrap;rounded=0;" vertex="1" parent="1">
          <mxGeometry x="230" y="250" width="40" height="50" as="geometry" />
        </mxCell>
        <mxCell id="BidWV4zDIWGO6gDACLuI-18" value="$$h_{src,in}$$" style="text;html=1;align=center;verticalAlign=middle;whiteSpace=wrap;rounded=0;" vertex="1" parent="1">
          <mxGeometry x="220" y="270" width="60" height="30" as="geometry" />
        </mxCell>
        <mxCell id="BidWV4zDIWGO6gDACLuI-19" value="$$\dot m_{snk,out} $$&amp;nbsp;&lt;div&gt;&lt;br&gt;&lt;/div&gt;" style="text;html=1;align=center;verticalAlign=middle;whiteSpace=wrap;rounded=0;" vertex="1" parent="1">
          <mxGeometry x="570" y="220" width="40" height="20" as="geometry" />
        </mxCell>
        <mxCell id="BidWV4zDIWGO6gDACLuI-20" value="$$h_{snk,out}$$" style="text;html=1;align=center;verticalAlign=middle;whiteSpace=wrap;rounded=0;" vertex="1" parent="1">
          <mxGeometry x="560" y="230" width="60" height="30" as="geometry" />
        </mxCell>
        <mxCell id="BidWV4zDIWGO6gDACLuI-21" value="$$\dot m_{src,out} $$&amp;nbsp;&lt;div&gt;&lt;br&gt;&lt;/div&gt;" style="text;html=1;align=center;verticalAlign=middle;whiteSpace=wrap;rounded=0;" vertex="1" parent="1">
          <mxGeometry x="390" y="450" width="40" height="50" as="geometry" />
        </mxCell>
        <mxCell id="BidWV4zDIWGO6gDACLuI-22" value="$$h_{src,out}$$" style="text;html=1;align=center;verticalAlign=middle;whiteSpace=wrap;rounded=0;" vertex="1" parent="1">
          <mxGeometry x="380" y="470" width="60" height="30" as="geometry" />
        </mxCell>
        <mxCell id="BidWV4zDIWGO6gDACLuI-25" value="$$\dot m_{snk,in} $$&amp;nbsp;&lt;div&gt;&lt;br&gt;&lt;/div&gt;" style="text;html=1;align=center;verticalAlign=middle;whiteSpace=wrap;rounded=0;" vertex="1" parent="1">
          <mxGeometry x="530" y="330" width="40" height="50" as="geometry" />
        </mxCell>
        <mxCell id="BidWV4zDIWGO6gDACLuI-26" value="$$h_{snk,in}$$" style="text;html=1;align=center;verticalAlign=middle;whiteSpace=wrap;rounded=0;" vertex="1" parent="1">
          <mxGeometry x="520" y="350" width="60" height="30" as="geometry" />
        </mxCell>
        <mxCell id="BidWV4zDIWGO6gDACLuI-27" value="" style="endArrow=classic;startArrow=classic;html=1;rounded=0;" edge="1" parent="1">
          <mxGeometry width="50" height="50" relative="1" as="geometry">
            <mxPoint x="320" y="400" as="sourcePoint" />
            <mxPoint x="320" y="310" as="targetPoint" />
          </mxGeometry>
        </mxCell>
        <mxCell id="BidWV4zDIWGO6gDACLuI-29" value="" style="endArrow=classic;startArrow=classic;html=1;rounded=0;" edge="1" parent="1">
          <mxGeometry width="50" height="50" relative="1" as="geometry">
            <mxPoint x="510" y="400" as="sourcePoint" />
            <mxPoint x="510" y="350" as="targetPoint" />
          </mxGeometry>
        </mxCell>
        <mxCell id="BidWV4zDIWGO6gDACLuI-30" value="" style="endArrow=classic;startArrow=classic;html=1;rounded=0;" edge="1" parent="1">
          <mxGeometry width="50" height="50" relative="1" as="geometry">
            <mxPoint x="519" y="400" as="sourcePoint" />
            <mxPoint x="520" y="230" as="targetPoint" />
          </mxGeometry>
        </mxCell>
        <mxCell id="BidWV4zDIWGO6gDACLuI-31" value="" style="endArrow=classic;startArrow=classic;html=1;rounded=0;" edge="1" parent="1">
          <mxGeometry width="50" height="50" relative="1" as="geometry">
            <mxPoint x="640" y="400" as="sourcePoint" />
            <mxPoint x="641" y="220" as="targetPoint" />
          </mxGeometry>
        </mxCell>
        <mxCell id="BidWV4zDIWGO6gDACLuI-32" value="$$H_{FT}$$" style="text;html=1;align=center;verticalAlign=middle;whiteSpace=wrap;rounded=0;" vertex="1" parent="1">
          <mxGeometry x="640" y="280" width="60" height="30" as="geometry" />
        </mxCell>
        <mxCell id="BidWV4zDIWGO6gDACLuI-34" value="$$H_{liq}$$" style="text;html=1;align=center;verticalAlign=middle;whiteSpace=wrap;rounded=0;" vertex="1" parent="1">
          <mxGeometry x="250" y="340" width="60" height="30" as="geometry" />
        </mxCell>
        <mxCell id="BidWV4zDIWGO6gDACLuI-35" value="$$H_{snk,out}$$" style="text;html=1;align=center;verticalAlign=middle;whiteSpace=wrap;rounded=0;" vertex="1" parent="1">
          <mxGeometry x="460" y="240" width="60" height="30" as="geometry" />
        </mxCell>
        <mxCell id="BidWV4zDIWGO6gDACLuI-36" value="$$H_{snk,in}$$" style="text;html=1;align=center;verticalAlign=middle;whiteSpace=wrap;rounded=0;" vertex="1" parent="1">
          <mxGeometry x="460" y="360" width="60" height="30" as="geometry" />
        </mxCell>
      </root>
    </mxGraphModel>
  </diagram>
</mxfile>
